<svg xmlns="http://www.w3.org/2000/svg" viewBox="0 0 1200 800" role="img" aria-label="건물 외관 (엘리베이터 있음)">
  <defs>
    <linearGradient id="sky" x1="0" y1="0" x2="0" y2="1">
      <stop offset="0" stop-color="#E9F1F7"/><stop offset="1" stop-color="#DDE8F0"/>
    </linearGradient>
  </defs>
  <rect width="1200" height="800" fill="url(#sky)"/>
  <rect x="0" y="0" width="1200" height="470" fill="#CFE2F0"/>
  <circle cx="1010" cy="120" r="52" fill="#F7E7A8" opacity=".8"/>
  <rect x="0" y="470" width="1200" height="246" fill="#C9C4B8"/>
  <rect x="0" y="470" width="1200" height="16" fill="#B4AEA0"/>
  <g>
    <rect x="330" y="120" width="540" height="366" fill="#E8E4DB"/>
    <rect x="330" y="120" width="540" height="26" fill="#D3CDC0"/>
    <rect x="360" y="170" width="76" height="52" rx="3" fill="#8FB6D2"/>
    <rect x="464" y="170" width="76" height="52" rx="3" fill="#8FB6D2"/>
    <rect x="568" y="170" width="76" height="52" rx="3" fill="#8FB6D2"/>
    <rect x="672" y="170" width="76" height="52" rx="3" fill="#8FB6D2"/>
    <rect x="776" y="170" width="76" height="52" rx="3" fill="#8FB6D2"/>
    <rect x="360" y="246" width="76" height="52" rx="3" fill="#8FB6D2"/>
    <rect x="464" y="246" width="76" height="52" rx="3" fill="#8FB6D2"/>
    <rect x="568" y="246" width="76" height="52" rx="3" fill="#8FB6D2"/>
    <rect x="672" y="246" width="76" height="52" rx="3" fill="#8FB6D2"/>
    <rect x="776" y="246" width="76" height="52" rx="3" fill="#8FB6D2"/>
    <rect x="360" y="322" width="76" height="52" rx="3" fill="#8FB6D2"/>
    <rect x="464" y="322" width="76" height="52" rx="3" fill="#8FB6D2"/>
    <rect x="568" y="322" width="76" height="52" rx="3" fill="#8FB6D2"/>
    <rect x="672" y="322" width="76" height="52" rx="3" fill="#8FB6D2"/>
    <rect x="776" y="322" width="76" height="52" rx="3" fill="#8FB6D2"/>
    <rect x="360" y="398" width="76" height="52" rx="3" fill="#8FB6D2"/>
    <rect x="464" y="398" width="76" height="52" rx="3" fill="#8FB6D2"/>
    <rect x="568" y="398" width="76" height="52" rx="3" fill="#8FB6D2"/>
    <rect x="672" y="398" width="76" height="52" rx="3" fill="#8FB6D2"/>
    <rect x="776" y="398" width="76" height="52" rx="3" fill="#8FB6D2"/>
    <rect x="560" y="410" width="90" height="76" fill="#7A5C3A"/>
    <rect x="656" y="410" width="90" height="76" fill="#7A5C3A"/>
    <rect x="330" y="96" width="540" height="26" fill="#1B4D2E"/>
    <path d="M600 30v66M574 52h52" stroke="#F2C82F" stroke-width="11" stroke-linecap="round"/>
  </g>
  <g fill="#5C7A62" opacity=".7">
    <rect x="150" y="380" width="18" height="106"/><circle cx="159" cy="358" r="48"/>
    <rect x="1030" y="392" width="16" height="94"/><circle cx="1038" cy="372" r="40"/>
  </g>
  <g stroke="#fff" stroke-width="6" opacity=".8"><path d="M0 620h140M220 620h140M440 620h140M660 620h140M880 620h140M1100 620h100"/></g>

  <g font-family="Pretendard, -apple-system, BlinkMacSystemFont, 'Malgun Gothic', sans-serif">
    <rect x="0" y="716" width="1200" height="84" fill="#12301F" opacity=".92"/>
    <text x="600" y="758" text-anchor="middle" fill="#F2C82F" font-size="27" font-weight="700">건물 외관 (엘리베이터 있음)</text>
    <text x="600" y="787" text-anchor="middle" fill="#ffffff" opacity=".72" font-size="19">예시 이미지 — 실제 매물 사진이 아닙니다</text>
  </g>
</svg>
